<?xml version="1.0" encoding="UTF-8" standalone="no"?>
<svg width="220px" height="114px" viewBox="0 0 220 114" version="1.1" xmlns="http://www.w3.org/2000/svg" xmlns:xlink="http://www.w3.org/1999/xlink" xmlns:sketch="http://www.bohemiancoding.com/sketch/ns">
    <!-- Generator: Sketch 3.2.2 (9983) - http://www.bohemiancoding.com/sketch -->
    <title>logo tekst</title>
    <desc>Created with Sketch.</desc>
    <defs>
        <filter x="-50%" y="-50%" width="200%" height="200%" filterUnits="objectBoundingBox" id="filter-1">
            <feOffset dx="0" dy="2" in="SourceAlpha" result="shadowOffsetOuter1"></feOffset>
            <feGaussianBlur stdDeviation="1.5" in="shadowOffsetOuter1" result="shadowBlurOuter1"></feGaussianBlur>
            <feColorMatrix values="0 0 0 0 0   0 0 0 0 0   0 0 0 0 0  0 0 0 0.07 0" in="shadowBlurOuter1" type="matrix" result="shadowMatrixOuter1"></feColorMatrix>
            <feMerge>
                <feMergeNode in="shadowMatrixOuter1"></feMergeNode>
                <feMergeNode in="SourceGraphic"></feMergeNode>
            </feMerge>
        </filter>
    </defs>
    <g id="Welcome" stroke="none" stroke-width="1" fill="none" fill-rule="evenodd" sketch:type="MSPage">
        <g id="Desktop" sketch:type="MSArtboardGroup" transform="translate(-408.000000, -173.000000)" filter="url(#filter-1)" fill="#4990E2">
            <g id="hero" sketch:type="MSLayerGroup">
                <g id="Group" transform="translate(250.000000, 106.000000)" sketch:type="MSShapeGroup">
                    <g id="logo-tekst" transform="translate(161.086847, 68.854234)">
                        <path d="M2.92064068,78.7878286 C6.77560247,78.3647231 10.6451338,77.9870969 14.461617,77.3187021 C28.2698443,74.9004773 41.337638,70.2060569 53.7666116,63.834126 C62.1258154,59.5486455 70.0882784,54.6048352 77.1455595,48.2780106 C83.162423,42.883882 88.3880461,36.9216364 91.4061909,29.3896136 C92.6203227,26.3596566 93.4466795,22.9759313 93.5172859,19.7331168 C93.633469,14.3993785 90.8521733,10.2171581 86.5548939,7.12308296 C80.3306941,2.64152009 73.0694389,1.09895586 65.6643558,0.496915929 C57.3757584,-0.176697787 49.0699763,0.357868936 40.9024184,2.02568729 C28.5556322,4.54717217 16.9545097,9.07868758 6.04674982,15.3704708 C5.48563415,15.694044 5.04481092,16.2260012 4.54832442,16.6606629 C8.66927446,15.4029027 12.5070516,13.7809363 16.3840546,12.2585022 C29.6158494,7.06306535 43.0927121,3.20031752 57.5651629,3.81242251 C62.6764709,4.02826222 67.6738373,4.50803026 72.4649881,6.23661178 C78.0062855,8.23583168 82.2187624,11.801101 83.3084924,17.8297014 C84.1621204,22.5517075 83.0548322,27.1887197 81.0240567,31.5144604 C76.3076217,41.5620036 69.0691549,49.423564 59.7816072,55.4379988 C52.4684245,60.1745433 44.8033304,64.2915272 36.689568,67.4612768 C30.9170251,69.7162238 25.0454839,71.8127394 19.0674726,73.4246407 C12.8051677,75.1133347 6.36354482,76.1384801 0,77.4540212 L0,78.5723617 C0.974667632,78.653255 1.9665199,78.892207 2.92064068,78.7878286 Z M84.3552607,88.9147739 C86.3363502,86.6546079 87.6151112,83.7185915 88.9248792,80.9551723 C89.9574515,78.7766452 89.9301803,76.3606571 87.9767356,74.6328211 C86.8249916,73.614013 85.2791216,72.9467365 83.8060996,72.4043414 C81.4002508,71.5189886 78.7964051,71.109676 76.481336,70.0524715 C73.3656871,68.6291969 72.9954703,66.3280251 75.089007,63.6402803 C77.713026,60.2714662 81.0483394,57.6985376 84.7841294,55.7552347 C87.4283217,54.3800488 90.3067479,53.4089565 93.1601444,52.5079469 C94.0081687,52.239918 95.3792037,52.5370238 96.0269897,53.114833 C96.4368059,53.4801575 95.9567568,54.8449056 95.8633621,55.7600809 C95.8514076,55.8771338 95.7199077,55.9863584 95.7206549,56.098938 C95.7228964,56.5283807 95.7565185,56.9578235 95.7781861,57.3868934 C96.2025718,57.2530653 96.8335468,57.2493375 97.014359,56.9626696 C97.6991293,55.8782522 98.4216311,54.7587934 98.7981988,53.5494946 C100.102737,49.3620553 97.7428381,47.0754219 93.3730844,47.9003844 C89.8098878,48.5732525 86.4618728,49.7266343 83.3499596,51.5148606 C76.7667503,55.2978335 71.1182357,60.112289 67.2270368,66.7365922 C65.02703,70.4815415 66.2777725,73.9864204 70.3247539,75.5431502 C71.4686529,75.9830308 72.6756866,76.260752 73.8580642,76.5984908 C76.0375241,77.222152 78.2916999,77.6571864 80.3856102,78.4925867 C83.8879134,79.8897667 84.6627163,82.2979264 82.3932238,85.2976882 C80.5066498,87.7908418 78.2984243,90.0927592 75.9743893,92.1948664 C71.1249602,96.5817431 65.5840363,99.8815929 59.1894844,101.504678 C57.3036576,101.983327 55.2964176,102.078386 53.3373693,102.153688 C51.2703566,102.233463 49.8279681,101.076353 48.9093373,98.8128323 C47.9253302,100.789313 48.274253,102.026943 49.5978434,102.944727 C50.3431335,103.461401 51.1627659,103.871459 51.9738059,104.294191 L58.6474213,104.294191 C58.6941187,104.259523 58.7423104,104.233056 58.7934907,104.224109 C69.237639,102.317338 77.5213799,96.7114706 84.3552607,88.9147739 Z M136.408265,74.4874369 C135.531475,75.3541507 134.813457,74.9396192 134.746212,73.697143 C134.702877,72.8915651 134.721183,72.0818866 134.735752,71.2744448 C134.779461,68.8554745 134.443613,66.5994091 131.97986,65.2149036 C132.406861,64.7116504 132.666124,64.2758704 133.039703,63.9873386 C135.820252,61.8397522 138.57988,59.6612251 141.436265,57.6168988 C143.037425,56.4709726 143.34376,55.817489 142.377311,54.0881619 C135.94316,57.1099178 130.751532,61.7901725 125.615941,66.6124564 C125.63985,66.1177771 125.773218,65.729713 125.987279,65.3927197 C129.880346,59.2601136 133.787235,53.1360815 137.675819,47.0004931 C137.995229,46.4961216 138.523096,45.8280996 138.396453,45.4001479 C138.142793,44.5434992 137.686653,43.4426794 136.985071,43.0848105 C135.526619,42.3407413 134.146618,43.0132367 133.34417,44.3835765 C130.264759,49.6438771 127.06879,54.8482606 124.269563,60.2558094 C121.42177,65.7572987 117.914984,70.6943989 113.427553,74.9426014 C113.041272,75.3082987 112.386014,75.3914287 111.855906,75.6061501 C111.710584,75.0335598 111.302635,74.3707567 111.463648,73.9032904 C112.354634,71.3184329 113.237401,68.7112086 114.415669,66.2512324 C115.260331,64.4876096 116.623895,62.9793411 117.644513,61.2899015 C118.604237,59.7018581 117.725579,58.0989035 115.855069,58.250625 C114.900575,58.3281633 113.721933,58.9943214 113.143259,59.7667218 C110.737037,62.97785 108.529932,66.3377174 106.23018,69.6293661 C104.682068,71.8459168 103.343161,74.2697333 100.67095,75.4160322 C99.2195959,76.0389478 98.513158,75.6665405 98.5206296,74.1359052 C98.5258597,73.0395588 98.4630984,71.8000648 98.9289514,70.874079 C100.635087,67.4832708 102.530253,64.1860304 104.397401,60.8776067 C104.944321,59.9087511 105.859589,58.9581617 104.725403,57.9333891 C103.575527,56.8951964 102.443209,57.5732835 101.639641,58.4843582 C99.8091036,60.5603708 97.8078408,62.5677918 96.4028102,64.9170523 C94.416117,68.2385234 92.8373721,71.8820765 92.8362514,75.840256 C92.8351306,79.1147568 94.4654294,81.4438871 97.5706181,80.5876111 C99.0085237,80.1913458 100.409445,79.1106562 101.462191,77.9967891 C103.238932,76.1172317 104.725777,73.9647991 106.435274,71.7989465 C106.435274,73.7854919 106.248859,75.5718543 106.480477,77.3019269 C106.802503,79.7037494 108.757068,80.4910611 110.653355,78.9958399 C112.486507,77.5498257 114.166866,75.8879719 115.777738,74.1914494 C117.17866,72.7167312 118.388308,71.0612146 119.68276,69.4858457 C119.141817,72.1579338 118.295287,74.6302117 117.432693,77.0972707 C116.899222,78.6241781 117.534307,79.5717852 118.926262,80.1346832 C120.395175,80.7281492 120.773237,79.6493235 121.401223,78.6614561 C123.182074,75.8611317 125.061924,73.1200793 126.998931,70.4245061 C127.383717,69.8891938 128.555261,69.2178168 128.745786,69.3714022 C129.359203,69.8664542 129.746605,70.6895528 130.091418,71.4448054 C130.256913,71.8071477 130.1355,72.3018269 130.136247,72.7364885 C130.139236,73.9789648 130.082452,75.224796 130.15007,76.4635444 C130.281196,78.8653669 131.785599,79.8222935 133.646769,78.4139301 C135.850886,76.7453662 137.744931,74.665253 139.741337,72.7305241 C140.173195,72.311892 140.468322,71.7527218 140.826584,71.2587881 C140.989465,71.4079001 141.152719,71.5570122 141.315599,71.7061242 C140.938284,72.9184053 140.637553,74.161627 140.164602,75.3355117 C139.559778,76.8366973 139.68941,77.9964164 141.31672,78.6711484 C142.90854,79.3317148 143.427068,78.2219483 144.147702,77.113673 C145.993556,74.2768161 147.889843,71.4597166 149.966195,68.7898652 C151.005865,67.45233 152.203186,67.8485953 152.514004,69.5488456 C152.752347,70.8528305 152.514377,72.2421821 152.74226,73.5491493 C152.973506,74.8728915 153.317946,76.2786455 154.053523,77.3455422 C154.254508,77.6370563 156.273329,77.1215014 157.054856,76.4844201 C158.865594,75.007838 160.441724,73.2419784 162.091075,71.5719234 C163.308943,70.3383939 164.492067,69.0705686 165.626627,67.8851278 C165.626627,69.5801591 165.585907,71.1678297 165.635219,72.7525181 C165.730482,75.7999958 167.956265,77.4801159 170.888861,76.5664317 C172.510567,76.0613146 174.249577,75.4715765 175.532448,74.4266737 C180.180518,70.639973 184.658983,66.6460066 189.197968,62.7262234 C189.707903,62.2855973 190.195797,61.8203676 190.694152,61.3666942 C190.812576,62.0906333 190.640356,62.5357327 190.48308,62.9864239 C189.411281,66.0566412 188.370117,69.1376691 187.261708,72.1944662 C186.74841,73.6091669 187.827306,74.2320825 188.666365,74.5675846 C189.254005,74.8020633 190.446469,74.4505316 190.89962,73.9431779 C193.367857,71.1823681 195.542834,68.1516656 198.097741,65.478832 C201.988566,61.4080728 206.015,57.4338637 211.963499,56.3949255 C212.541426,56.293902 213.517588,55.3045435 213.432785,55.1110706 C212.97926,54.079588 212.433835,52.8810998 210.931674,53.1364542 C210.336189,53.2378504 209.701478,53.4257316 209.209101,53.7571332 C206.601146,55.5125549 203.981236,57.2571659 201.470412,59.1445518 C199.909225,60.3184365 198.534454,61.7387288 197.076002,63.0483054 C197.451449,61.1288605 198.096246,59.3760483 198.78139,57.6396384 C199.268537,56.4049905 199.409003,55.3231826 198.156766,54.3752026 C196.237317,52.9221057 195.789396,53.0682355 193.894977,55.0764021 C189.911877,59.29851 185.9624,63.5724343 181.705094,67.5086198 C179.524139,69.5249876 176.758534,70.9422977 174.161039,72.4677141 C172.816155,73.2568896 171.788439,72.4095604 171.174649,71.1778948 C170.53284,69.8903122 171.360691,69.3203313 172.388407,68.7492321 C173.784472,67.9731039 175.103579,67.0560647 176.436883,66.1714575 C179.954502,63.8378538 183.468387,61.4412502 185.744977,57.8036616 C186.423023,56.7203625 186.775682,54.9492841 186.356899,53.8391448 C186.081198,53.1084957 184.177066,52.9146501 182.965176,52.6436389 C182.407796,52.5191303 181.742825,52.7185677 181.159295,52.885946 C176.07339,54.3450075 172.312944,57.6892181 168.973521,61.5758239 C166.235934,64.7623485 163.640307,68.0711451 160.866109,71.2244923 C160.068518,72.1310936 158.868956,72.6854177 157.853942,73.4011555 C157.619708,72.1762 157.193454,70.95199 157.192334,69.7270345 C157.190092,67.3568983 157.18262,65.0892767 154.266463,63.8046763 C156.028261,62.3005085 157.519589,60.9152575 159.12822,59.6828463 C161.038703,58.2193115 163.098618,56.9470128 164.98295,55.45291 C165.433486,55.0957867 165.445441,54.1884398 165.659128,53.5345834 C165.069247,53.442134 164.451721,53.1972174 163.896956,53.2974953 C163.256268,53.4134299 162.594286,53.7343936 162.073143,54.1362506 C157.333173,57.7913599 152.621968,61.4837472 147.932431,65.1414659 C148.323194,64.4261008 148.761402,63.4993694 149.308696,62.6423479 C153.058682,56.7695695 156.798208,50.8897083 160.623657,45.0661369 C161.451134,43.8065128 161.314778,42.9465091 160.236629,42.0290971 C158.757256,40.769473 157.256589,41.2220281 155.837362,43.3308454 C151.069374,50.4173959 147.159869,57.9550104 143.828292,65.807624 C142.278686,69.4601239 139.121196,71.8056565 136.408265,74.4874369 Z M178.220722,56.9805631 C179.350799,56.1190682 181.018082,55.3056619 182.071201,56.5321086 C183.221824,57.8726259 181.771217,59.1169661 180.816349,60.0914133 C178.487458,62.4686323 175.808149,64.3239591 172.133252,65.4594474 C173.527076,61.787563 175.479026,59.0711141 178.220722,56.9805631 Z M94.1878602,40.4157047 C95.600736,41.0050701 97.4308996,41.1232414 98.9491247,40.8183072 C101.560442,40.2938056 103.54452,38.5048337 105.307066,36.5514657 C107.011707,34.6625887 108.692812,32.7520905 110.384005,30.8509118 C110.465445,31.8861222 110.222992,32.7584278 110.038444,33.6426623 C109.259532,37.3727004 111.242116,40.1853265 114.351787,39.6183279 C115.399303,39.4274645 116.547311,38.9148918 117.308291,38.1920711 C119.623361,35.9941594 121.787504,33.6370706 123.977797,31.3112953 C125.057067,30.1657419 126.06461,28.9534609 127.10428,27.771375 C127.213365,27.8407121 127.322077,27.9100492 127.431162,27.9790136 C127.328054,28.3640955 127.254833,28.7603607 127.116982,29.1327681 C126.177431,31.669537 125.17848,34.1858029 124.293845,36.7412108 C123.816785,38.1186334 124.095101,39.3324056 125.625281,39.9359366 C127.140144,40.5335032 127.683701,39.4789082 128.332234,38.4198398 C131.440785,33.3433198 134.90984,28.5523494 139.848928,25.0579084 C140.680889,24.4692885 141.770992,24.2445021 142.741924,23.8515918 C142.619764,24.9188614 142.70606,26.0651603 142.33547,27.0381165 C141.268155,29.8414232 139.721164,32.4561031 140.187764,35.6843791 C140.612524,38.6207683 142.917132,40.3530776 145.748861,39.742091 C149.365106,38.9618621 151.511318,36.2853007 153.782678,33.7656797 C154.425607,33.0525513 154.866431,32.1575062 155.400275,31.3459638 C155.192939,31.1756033 154.985602,31.0052428 154.778266,30.8348822 C153.836473,31.8745661 152.956695,32.9813503 151.933088,33.9334308 C151.083196,34.7233519 150.14626,35.5341487 149.095009,35.9591181 C148.155831,36.3386083 147.008196,36.2032891 145.952462,36.294993 C145.921455,35.2966878 145.643138,34.2253176 145.912863,33.3161069 C146.433258,31.5625491 147.289875,29.911133 147.958581,28.1985811 C148.824911,25.9801664 149.949384,23.8027576 150.401414,21.4982308 C150.906493,18.925675 148.842843,17.5139566 146.617806,18.8667758 C143.473765,20.7780196 140.497461,22.9755585 137.531617,25.161914 C136.231936,26.1203318 135.135108,27.3527429 133.946006,28.4606455 C133.785367,28.3626043 133.625102,28.2641904 133.464463,28.1661492 C134.160441,26.4398044 134.867252,24.7175601 135.549407,22.9856236 C136.345504,20.9651552 135.972299,20.0518438 134.159693,19.0818699 C132.305247,18.0891564 131.615247,19.4024608 130.846048,20.6259253 C128.131622,24.944956 125.137387,29.0544843 121.287655,32.4404463 C119.916247,33.6467628 118.290057,34.5753582 116.727003,35.5449593 C116.38854,35.7548346 115.596552,35.784657 115.410137,35.5639711 C115.118371,35.2191495 115.026844,34.5675298 115.103802,34.0858979 C115.197196,33.4969052 115.509882,32.9269244 115.801274,32.3882571 C117.292601,29.6285657 118.889651,26.9214363 120.261434,24.1047095 C120.647714,23.3114334 120.774731,21.645479 120.358938,21.3685033 C119.553501,20.8320727 118.219451,20.7329132 117.216765,20.9558357 C116.415438,21.1336518 115.680608,21.9731527 115.089979,22.6665238 C112.96693,25.1600501 111.063918,27.8571145 108.793679,30.2037655 C106.975096,32.0840685 104.830753,33.6974609 102.643447,35.1468301 C102.001265,35.5725451 100.417664,35.3727349 99.8147072,34.8404049 C99.2337919,34.3278322 99.0761415,32.9653207 99.2322976,32.0624472 C99.7317727,29.1827206 101.845483,27.2409089 103.75746,25.2618191 C106.774858,22.1382943 110.248395,19.8065545 114.792984,19.5023659 C115.349617,19.4650879 115.869265,18.8760953 116.406098,18.542457 C115.748599,18.254298 115.056357,17.6589681 114.439205,17.7283052 C110.895808,18.1268072 107.598226,19.3543722 104.63948,21.324888 C99.4930557,24.7526014 95.3489438,29.0921351 93.066376,34.9418011 C92.1809938,37.2101682 92.5807233,39.745446 94.1878602,40.4157047 Z M34.9950136,63.299932 C35.6073096,61.3186056 36.1736553,59.3223679 36.8162112,57.3514793 C41.0768798,44.2885176 47.2233752,32.1731629 55.1107488,20.9155754 C57.1179888,18.05076 58.9537561,15.0591994 60.7316186,12.0460175 C61.355122,10.9891858 61.6588417,9.65537846 60.2900482,8.74877716 C58.9623484,7.86901602 57.6566898,8.13741772 56.5564996,9.14094186 C55.6968943,9.9248985 54.8145007,10.7755828 54.2455399,11.7697874 C51.5613747,16.4586161 48.8331272,21.1325335 46.3977656,25.9510896 C42.0388458,34.5761037 38.7659201,43.6324245 36.3679164,52.9895789 C35.488885,56.4199017 34.8235408,59.9046505 34.0606925,63.3647958 C34.29007,63.4210856 34.5198211,63.4773754 34.7491986,63.5332924 C34.8336274,63.4564997 34.966248,63.3938726 34.9950136,63.299932 Z" id="Fill-1"></path>
                    </g>
                </g>
            </g>
        </g>
    </g>
</svg>